HIERARCHY
ROOT Hips
{
	OFFSET 0.00 0.00 0.00
	CHANNELS 6 Xposition Yposition Zposition Xrotation Yrotation Zrotation
	JOINT Spine
	{
		OFFSET 0.00000 1.72418 2.58627
		CHANNELS 3 Xrotation Yrotation Zrotation
		JOINT Spine1
		{
			OFFSET 0.00000 0.59880 3.39597
			CHANNELS 3 Xrotation Yrotation Zrotation
			JOINT Spine2
			{
				OFFSET 0.00000 0.30055 3.43524
				CHANNELS 3 Xrotation Yrotation Zrotation
				JOINT Spine3
				{
					OFFSET 0.00000 0.00000 3.44836
					CHANNELS 3 Xrotation Yrotation Zrotation
					JOINT Neck
					{
						OFFSET 0.00000 -1.29313 9.05195
						CHANNELS 3 Xrotation Yrotation Zrotation
						JOINT Head
						{
							OFFSET 0.00000 -0.82335 4.66946
							CHANNELS 3 Xrotation Yrotation Zrotation
							End Site
							{
								OFFSET 0.00000 0.00001 5.58203
							}
						}
					}
					JOINT RightShoulder
					{
						OFFSET -1.18828 -1.98046 6.41673
						CHANNELS 3 Xrotation Yrotation Zrotation
						JOINT RightArm
						{
							OFFSET -5.90180 0.00000 0.00000
							CHANNELS 3 Xrotation Yrotation Zrotation
							JOINT RightForeArm
							{
								OFFSET -11.45951 0.00000 0.00000
								CHANNELS 3 Xrotation Yrotation Zrotation
								JOINT RightHand
								{
									OFFSET -10.63451 0.00000 0.00000
									CHANNELS 3 Xrotation Yrotation Zrotation
									JOINT RightHandEnd
									{
										OFFSET -2.86944 0.00000 0.00000
										CHANNELS 3 Xrotation Yrotation Zrotation
										End Site
										{
											OFFSET -2.86944 0.00000 0.00000
										}
									}
									JOINT RightHandThumb1
									{
										OFFSET -1.14778 -1.91296 -0.76518
										CHANNELS 3 Yrotation Xrotation Zrotation
										End Site
										{
											OFFSET -2.77167 -0.74267 0.00000
										}
									}
								}
							}
						}
					}
					JOINT LeftShoulder
					{
						OFFSET 1.18828 -1.98046 6.41673
						CHANNELS 3 Xrotation Yrotation Zrotation
						JOINT LeftArm
						{
							OFFSET 5.90180 0.00000 0.00000
							CHANNELS 3 Xrotation Yrotation Zrotation
							JOINT LeftForeArm
							{
								OFFSET 11.45951 0.00000 0.00000
								CHANNELS 3 Xrotation Yrotation Zrotation
								JOINT LeftHand
								{
									OFFSET 10.63451 0.00000 0.00000
									CHANNELS 3 Xrotation Yrotation Zrotation
									JOINT LeftHandEnd
									{
										OFFSET 2.86944 0.00000 0.00000
										CHANNELS 3 Xrotation Yrotation Zrotation
										End Site
										{
											OFFSET 2.86944 0.00000 0.00000
										}
									}
									JOINT LeftHandThumb1
									{
										OFFSET 1.14778 -1.91296 -0.76518
										CHANNELS 3 Yrotation Xrotation Zrotation
										End Site
										{
											OFFSET 2.77167 -0.74267 0.00000
										}
									}
								}
							}
						}
					}
				}
			}
		}
	}
	JOINT RightUpLeg
	{
		OFFSET -3.52524 0.00000 -1.02984
		CHANNELS 3 Xrotation Yrotation Zrotation
		JOINT RightLeg
		{
			OFFSET 0.00001 0.00000 -17.80965
			CHANNELS 3 Xrotation Yrotation Zrotation
			JOINT RightFoot
			{
				OFFSET 0.00001 0.00000 -17.00908
				CHANNELS 3 Xrotation Yrotation Zrotation
				JOINT RightToeBase
				{
					OFFSET 0.00000 -5.55853 -2.02314
					CHANNELS 3 Xrotation Yrotation Zrotation
					End Site
					{
						OFFSET 0.00000 -2.85188 -0.00000
					}
				}
			}
		}
	}
	JOINT LeftUpLeg
	{
		OFFSET 3.52524 0.00000 -1.02984
		CHANNELS 3 Xrotation Yrotation Zrotation
		JOINT LeftLeg
		{
			OFFSET 0.00001 0.00000 -17.80965
			CHANNELS 3 Xrotation Yrotation Zrotation
			JOINT LeftFoot
			{
				OFFSET 0.00001 0.00000 -17.00908
				CHANNELS 3 Xrotation Yrotation Zrotation
				JOINT LeftToeBase
				{
					OFFSET 0.00000 -5.55853 -2.02314
					CHANNELS 3 Xrotation Yrotation Zrotation
					End Site
					{
						OFFSET 0.00000 -2.85188 -0.00000
					}
				}
			}
		}
	}
}
MOTION
Frames: 18
Frame Time: 0.008342
 4.8701 -102.0678 36.1898 -4.0872 -0.4527 -176.0276 0.6910 -0.7468 -0.4068 0.5837 0.2001 -0.0871 -0.0297 -0.4460 -0.6816 -0.4930 0.1595 0.0184 -3.4029 -1.4597 -2.6754 -1.3816 -0.3426 -2.6742 2.7244 3.3783 -2.1135 -0.9350 -1.1611 1.4710 0.0000 0.0000 12.3422 -5.0076 17.5833 -4.6109 -0.0000 -0.0000 -0.0000 -0.0000 -0.0000 -0.0000 12.2121 -3.7449 -1.0584 -11.5201 2.5650 9.7941 -0.0000 -0.0000 -20.0890 -9.0333 -17.1248 -1.6136 0.0000 0.0000 -0.0000 0.0000 -0.0000 0.0000 -7.5985 0.2477 -30.3177 17.5990 0.0000 0.0000 -16.9958 0.2074 5.1907 0.1437 0.0000 0.0000 -10.1941 -6.0049 5.3691 26.3016 0.0000 0.0000 -18.2363 7.1856 1.6202 -6.6327 0.0000 -0.0000
 4.8523 -102.0753 36.1947 -4.0712 -0.4494 -176.0874 0.6933 -0.7397 -0.4082 0.5816 0.1971 -0.0869 -0.0168 -0.4495 -0.6863 -0.4926 0.1554 0.0210 -3.4226 -1.4623 -2.6730 -1.3825 -0.3432 -2.6473 2.7282 3.4108 -2.1309 -0.9937 -1.1213 1.4716 0.0000 0.0000 12.3699 -5.0022 17.6995 -4.6294 0.0000 0.0000 0.0000 0.0000 -0.0000 -0.0000 12.2640 -3.7483 -0.9944 -11.5268 2.5497 9.6963 -0.0000 -0.0000 -19.9654 -9.0678 -17.1726 -1.5905 0.0000 -0.0000 -0.0000 -0.0000 -0.0000 -0.0000 -7.5764 0.2719 -30.3291 17.5548 0.0000 0.0000 -16.9312 0.1772 5.2532 0.1740 0.0000 0.0000 -10.1433 -6.0050 5.0513 26.0195 0.0000 0.0000 -18.4301 6.7872 1.9277 -6.8715 0.0000 -0.0000
 4.8274 -102.0833 36.2013 -4.0462 -0.4357 -176.1851 0.6918 -0.7262 -0.4097 0.5845 0.1943 -0.0870 -0.0035 -0.4512 -0.6798 -0.4907 0.1501 0.0259 -3.4348 -1.4656 -2.6660 -1.3881 -0.3457 -2.6100 2.7285 3.4544 -2.1436 -1.0433 -1.0722 1.4730 0.0000 0.0000 12.4030 -4.9904 17.8455 -4.6425 0.0000 0.0000 0.0000 0.0000 -0.0000 -0.0000 12.3084 -3.7540 -0.9229 -11.5235 2.5364 9.5943 -0.0000 -0.0000 -19.8202 -9.1088 -17.2319 -1.5682 -0.0000 -0.0000 0.0000 -0.0000 -0.0000 0.0000 -7.5439 0.3150 -30.3346 17.5032 0.0000 0.0000 -16.8508 0.1341 5.3421 0.2131 0.0000 0.0000 -10.0515 -6.0050 4.7357 25.5971 0.0000 0.0000 -18.5759 6.2986 2.3248 -7.1463 0.0000 -0.0000
 4.7953 -102.0909 36.2094 -4.0032 -0.4131 -176.3269 0.7017 -0.7056 -0.4113 0.5793 0.1890 -0.0877 0.0161 -0.4534 -0.6562 -0.4880 0.1454 0.0306 -3.4356 -1.4698 -2.6518 -1.3977 -0.3499 -2.5614 2.7248 3.5139 -2.1503 -1.0780 -1.0204 1.4817 0.0000 0.0000 12.4371 -4.9681 18.0165 -4.6512 -0.0000 -0.0000 0.0000 -0.0000 -0.0000 0.0000 12.3389 -3.7640 -0.8453 -11.5096 2.5297 9.4969 -0.0000 -0.0000 -19.6600 -9.1483 -17.3001 -1.5471 0.0000 0.0000 0.0000 -0.0000 -0.0000 0.0000 -7.4922 0.3737 -30.3261 17.4452 0.0000 0.0000 -16.7565 0.0786 5.4550 0.2600 0.0000 0.0000 -9.9043 -6.0108 4.4584 25.0327 0.0000 0.0000 -18.6406 5.7449 2.7952 -7.4159 0.0000 -0.0000
 4.7566 -102.0987 36.2183 -3.9641 -0.3876 -176.5168 0.6960 -0.6797 -0.4132 0.5745 0.1768 -0.0856 0.0369 -0.4528 -0.6217 -0.4840 0.1387 0.0401 -3.4230 -1.4742 -2.6282 -1.4103 -0.3554 -2.5005 2.7137 3.5848 -2.1453 -1.0896 -0.9617 1.4981 0.0000 0.0000 12.4705 -4.9350 18.2014 -4.6556 0.0000 0.0000 0.0000 -0.0000 0.0000 0.0000 12.3491 -3.7744 -0.7616 -11.4828 2.5279 9.4079 -0.0000 -0.0000 -19.4901 -9.1841 -17.3768 -1.5297 -0.0000 0.0000 -0.0000 0.0000 0.0000 0.0000 -7.4501 0.4422 -30.2857 17.3892 0.0000 0.0000 -16.6517 0.0157 5.5776 0.3126 0.0000 0.0000 -9.7275 -6.0303 4.2562 24.3434 0.0000 0.0000 -18.5967 5.1608 3.3130 -7.6339 0.0000 -0.0000
 4.7117 -102.1060 36.2273 -3.9247 -0.3588 -176.7561 0.6802 -0.6493 -0.4162 0.5700 0.1606 -0.0781 0.0575 -0.4510 -0.5771 -0.4789 0.1286 0.0551 -3.3954 -1.4773 -2.5936 -1.4236 -0.3624 -2.4276 2.6951 3.6705 -2.1279 -1.0772 -0.9028 1.5276 0.0000 0.0000 12.4988 -4.8893 18.3919 -4.6562 0.0000 0.0000 0.0000 0.0000 -0.0000 0.0000 12.3327 -3.7826 -0.6761 -11.4425 2.5303 9.3372 -0.0000 -0.0000 -19.3196 -9.2113 -17.4575 -1.5154 0.0000 -0.0000 -0.0000 -0.0000 0.0000 0.0000 -7.4155 0.5197 -30.2047 17.3405 0.0000 0.0000 -16.5419 -0.0519 5.7039 0.3687 0.0000 0.0000 -9.5155 -6.0633 4.1644 23.5477 0.0000 0.0000 -18.4235 4.5879 3.8472 -7.7538 0.0000 -0.0000
 4.6617 -102.1121 36.2362 -3.8764 -0.3312 -177.0409 0.6662 -0.6208 -0.4162 0.5629 0.1468 -0.0805 0.0772 -0.4550 -0.5066 -0.4735 0.1188 0.0680 -3.3519 -1.4816 -2.5472 -1.4341 -0.3688 -2.3420 2.6679 3.7623 -2.0955 -1.0356 -0.8378 1.5738 0.0000 0.0000 12.5184 -4.8353 18.5728 -4.6564 -0.0000 -0.0000 0.0000 -0.0000 -0.0000 -0.0000 12.2879 -3.7877 -0.5900 -11.3884 2.5342 9.2899 -0.0000 -0.0000 -19.1554 -9.2292 -17.5402 -1.5056 0.0000 -0.0000 -0.0000 0.0000 -0.0000 -0.0000 -7.3791 0.5991 -30.0790 17.2990 0.0000 0.0000 -16.4302 -0.1217 5.8269 0.4255 0.0000 0.0000 -9.2624 -6.1142 4.2152 22.6765 0.0000 0.0000 -18.1154 4.0705 4.3568 -7.7342 0.0000 -0.0000
 4.6075 -102.1171 36.2443 -3.8296 -0.3039 -177.3661 0.6443 -0.5876 -0.4174 0.5562 0.1300 -0.0784 0.0938 -0.4621 -0.4300 -0.4672 0.1050 0.0851 -3.2950 -1.4841 -2.4871 -1.4394 -0.3747 -2.2452 2.6311 3.8588 -2.0457 -0.9689 -0.7682 1.6367 0.0000 0.0000 12.5287 -4.7740 18.7358 -4.6591 0.0000 0.0000 0.0000 -0.0000 -0.0000 -0.0000 12.2137 -3.7829 -0.5035 -11.3252 2.5359 9.2687 -0.0000 -0.0000 -19.0049 -9.2345 -17.6252 -1.4990 0.0000 0.0000 0.0000 0.0000 0.0000 0.0000 -7.3560 0.6812 -29.8988 17.2729 0.0000 0.0000 -16.3227 -0.1890 5.9337 0.4808 0.0000 0.0000 -8.9853 -6.1775 4.4331 21.7674 0.0000 0.0000 -17.6790 3.6488 4.8014 -7.5443 0.0000 -0.0000
 4.5502 -102.1210 36.2514 -3.7813 -0.2763 -177.7220 0.6214 -0.5490 -0.4191 0.5478 0.1133 -0.0762 0.1082 -0.4753 -0.3467 -0.4607 0.0876 0.1036 -3.2282 -1.4856 -2.4137 -1.4374 -0.3790 -2.1381 2.5844 3.9542 -1.9797 -0.8839 -0.6936 1.7184 0.0000 0.0000 12.5285 -4.7068 18.8726 -4.6678 -0.0000 -0.0000 -0.0000 0.0000 0.0000 0.0000 12.1129 -3.7641 -0.4172 -11.2577 2.5299 9.2739 -0.0000 -0.0000 -18.8733 -9.2281 -17.7132 -1.4952 -0.0000 -0.0000 0.0000 -0.0000 0.0000 0.0000 -7.3432 0.7653 -29.6639 17.2640 0.0000 0.0000 -16.2233 -0.2510 6.0165 0.5323 0.0000 0.0000 -8.6881 -6.2476 4.8316 20.8602 0.0000 0.0000 -17.1359 3.3542 5.1411 -7.1663 0.0000 -0.0000
 4.4905 -102.1237 36.2575 -3.7329 -0.2454 -178.0973 0.5980 -0.5009 -0.4213 0.5380 0.0975 -0.0739 0.1209 -0.4958 -0.2625 -0.4542 0.0669 0.1234 -3.1558 -1.4863 -2.3285 -1.4267 -0.3803 -2.0224 2.5277 4.0400 -1.8991 -0.7870 -0.6092 1.8184 0.0000 0.0000 12.5185 -4.6361 18.9768 -4.6870 0.0000 -0.0000 -0.0000 -0.0000 -0.0000 -0.0000 11.9906 -3.7262 -0.3313 -11.1942 2.5101 9.3031 -0.0000 -0.0000 -18.7644 -9.2116 -17.8063 -1.4924 0.0000 -0.0000 -0.0000 -0.0000 0.0000 -0.0000 -7.3429 0.8541 -29.3768 17.2747 0.0000 0.0000 -16.1354 -0.3056 6.0688 0.5782 0.0000 0.0000 -8.3809 -6.3145 5.4086 19.9937 0.0000 0.0000 -16.5174 3.2031 5.3461 -6.5956 0.0000 -0.0000
 4.4293 -102.1254 36.2626 -3.6848 -0.2077 -178.4788 0.5762 -0.4388 -0.4240 0.5277 0.0838 -0.0724 0.1316 -0.5245 -0.1839 -0.4475 0.0424 0.1432 -3.0835 -1.4868 -2.2331 -1.4064 -0.3781 -1.9001 2.4617 4.1071 -1.8066 -0.6868 -0.5094 1.9354 0.0000 0.0000 12.5004 -4.5672 19.0452 -4.7189 0.0000 -0.0000 -0.0000 -0.0000 -0.0000 0.0000 11.8536 -3.6651 -0.2451 -11.1414 2.4711 9.3522 -0.0000 -0.0000 -18.6808 -9.1884 -17.9081 -1.4887 -0.0000 -0.0000 0.0000 0.0000 0.0000 0.0000 -7.3544 0.9513 -29.0456 17.3053 0.0000 0.0000 -16.0611 -0.3517 6.0866 0.6186 0.0000 0.0000 -8.0720 -6.3673 6.1456 19.2003 0.0000 0.0000 -15.8601 3.1963 5.3984 -5.8431 0.0000 -0.0000
 4.3670 -102.1264 36.2672 -3.6371 -0.1595 -178.8533 0.5565 -0.3582 -0.4288 0.5180 0.0707 -0.0678 0.1411 -0.5593 -0.1196 -0.4405 0.0132 0.1641 -3.0168 -1.4863 -2.1308 -1.3773 -0.3722 -1.7746 2.3884 4.1522 -1.7085 -0.5950 -0.3954 2.0672 0.0000 0.0000 12.4778 -4.5010 19.0799 -4.7644 0.0000 0.0000 -0.0000 0.0000 -0.0000 -0.0000 11.7106 -3.5800 -0.1589 -11.1101 2.4117 9.4141 -0.0000 -0.0000 -18.6220 -9.1646 -18.0234 -1.4834 0.0000 -0.0000 -0.0000 -0.0000 -0.0000 0.0000 -7.3762 1.0607 -28.6823 17.3538 0.0000 0.0000 -16.0006 -0.3892 6.0697 0.6530 0.0000 0.0000 -7.7691 -6.3956 7.0062 18.5037 0.0000 0.0000 -15.2014 3.3188 5.2991 -4.9348 0.0000 -0.0000
 4.3039 -102.1269 36.2714 -3.5928 -0.0984 -179.2087 0.5372 -0.2595 -0.4316 0.5077 0.0643 -0.0708 0.1517 -0.6056 -0.0631 -0.4333 -0.0154 0.1787 -2.9600 -1.4887 -2.0248 -1.3408 -0.3605 -1.6468 2.3083 4.1644 -1.6051 -0.5170 -0.2594 2.2057 0.0000 0.0000 12.4555 -4.4426 19.0821 -4.8251 0.0000 0.0000 0.0000 -0.0000 -0.0000 0.0000 11.5700 -3.4707 -0.0717 -11.1082 2.3281 9.4830 -0.0000 -0.0000 -18.5883 -9.1439 -18.1547 -1.4712 0.0000 -0.0000 -0.0000 0.0000 0.0000 0.0000 -7.4095 1.1854 -28.3002 17.4179 0.0000 0.0000 -15.9530 -0.4189 6.0189 0.6829 0.0000 0.0000 -7.4809 -6.3914 7.9428 17.9166 0.0000 0.0000 -14.5754 3.5435 5.0633 -3.9104 0.0000 -0.0000
 4.2402 -102.1264 36.2759 -3.5364 -0.0253 -179.5325 0.5356 -0.1445 -0.4392 0.4942 0.0612 -0.0684 0.1649 -0.6550 -0.0307 -0.4261 -0.0490 0.1937 -2.9160 -1.4892 -1.9190 -1.2970 -0.3454 -1.5220 2.2281 4.1535 -1.5097 -0.4646 -0.1146 2.3533 0.0000 0.0000 12.4353 -4.3896 19.0647 -4.8969 0.0000 -0.0000 0.0000 -0.0000 -0.0000 -0.0000 11.4411 -3.3415 0.0124 -11.1408 2.2258 9.5520 -0.0000 -0.0000 -18.5752 -9.1347 -18.3060 -1.4553 -0.0000 -0.0000 0.0000 -0.0000 -0.0000 0.0000 -7.4303 1.3244 -27.9240 17.4864 0.0000 0.0000 -15.9142 -0.4434 5.9447 0.7102 0.0000 0.0000 -7.1925 -6.3518 8.8981 17.4358 0.0000 0.0000 -14.0096 3.8362 4.7212 -2.8215 0.0000 -0.0000
 4.1759 -102.1259 36.2808 -3.4856 0.0609 -179.8187 0.5315 -0.0137 -0.4456 0.4802 0.0617 -0.0695 0.1813 -0.7091 -0.0163 -0.4189 -0.0811 0.2044 -2.8865 -1.4922 -1.8178 -1.2505 -0.3256 -1.4008 2.1478 4.1102 -1.4223 -0.4363 0.0467 2.5006 0.0000 0.0000 12.4224 -4.3449 19.0325 -4.9772 0.0000 -0.0000 -0.0000 -0.0000 -0.0000 0.0000 11.3305 -3.1971 0.0944 -11.2131 2.1076 9.6134 -0.0000 -0.0000 -18.5801 -9.1373 -18.4792 -1.4318 -0.0000 -0.0000 0.0000 0.0000 0.0000 0.0000 -7.4577 1.4803 -27.5620 17.5600 0.0000 0.0000 -15.8824 -0.4633 5.8473 0.7367 0.0000 0.0000 -6.9246 -6.2735 9.8179 17.0523 0.0000 0.0000 -13.5228 4.1606 4.3116 -1.7279 0.0000 -0.0000
 4.1107 -102.1248 36.2866 -3.4327 0.1568 179.9382 0.5288 0.1283 -0.4528 0.4707 0.0596 -0.0712 0.1980 -0.7583 -0.0231 -0.4110 -0.1134 0.2124 -2.8709 -1.4965 -1.7239 -1.2034 -0.3021 -1.2862 2.0702 4.0422 -1.3456 -0.4333 0.2147 2.6390 0.0000 0.0000 12.4225 -4.3063 18.9961 -5.0615 -0.0000 0.0000 -0.0000 -0.0000 -0.0000 0.0000 11.2440 -3.0459 0.1728 -11.3274 1.9827 9.6613 -0.0000 -0.0000 -18.5987 -9.1585 -18.6745 -1.4015 -0.0000 -0.0000 0.0000 0.0000 0.0000 0.0000 -7.4772 1.6497 -27.2343 17.6283 0.0000 0.0000 -15.8522 -0.4811 5.7379 0.7648 0.0000 0.0000 -6.6656 -6.1589 10.6529 16.7419 0.0000 0.0000 -13.1248 4.4826 3.8761 -0.6910 0.0000 -0.0000
 4.0446 -102.1228 36.2936 -3.3729 0.2566 179.7402 0.5341 0.2650 -0.4620 0.4595 0.0735 -0.0691 0.2178 -0.8150 -0.0508 -0.4024 -0.1424 0.2164 -2.8669 -1.5002 -1.6398 -1.1579 -0.2763 -1.1810 1.9999 3.9585 -1.2855 -0.4529 0.3802 2.7680 0.0000 0.0000 12.4360 -4.2726 18.9668 -5.1426 0.0000 0.0000 0.0000 -0.0000 -0.0000 0.0000 11.1846 -2.8949 0.2451 -11.4794 1.8600 9.6913 -0.0000 -0.0000 -18.6258 -9.1978 -18.8906 -1.3652 -0.0000 -0.0000 0.0000 0.0000 0.0000 0.0000 -7.4776 1.8261 -26.9548 17.6818 0.0000 0.0000 -15.8178 -0.4990 5.6246 0.7957 0.0000 0.0000 -6.4060 -6.0151 11.3697 16.4776 0.0000 0.0000 -12.8176 4.7744 3.4495 0.2329 0.0000 0.0000
 3.9773 -102.1200 36.3019 -3.3142 0.3590 179.5843 0.5366 0.3999 -0.4712 0.4472 0.0822 -0.0695 0.2415 -0.8609 -0.0895 -0.3935 -0.1682 0.2176 -2.8706 -1.5038 -1.5685 -1.1188 -0.2491 -1.0860 1.9377 3.8642 -1.2440 -0.4878 0.5372 2.8825 0.0000 0.0000 12.4645 -4.2417 18.9529 -5.2151 -0.0000 0.0000 -0.0000 0.0000 -0.0000 -0.0000 11.1501 -2.7530 0.3047 -11.6630 1.7479 9.7057 -0.0000 -0.0000 -18.6597 -9.2555 -19.1215 -1.3243 0.0000 0.0000 -0.0000 -0.0000 -0.0000 0.0000 -7.4666 2.0090 -26.7282 17.7189 0.0000 0.0000 -15.7766 -0.5171 5.5124 0.8306 0.0000 0.0000 -6.1493 -5.8444 11.9499 16.2297 0.0000 0.0000 -12.5927 5.0154 3.0623 0.9978 0.0000 0.0000
